<mxfile host="app.diagrams.net" agent="Mozilla/5.0 (Windows NT 10.0; Win64; x64) AppleWebKit/537.36 (KHTML, like Gecko) Chrome/131.0.0.0 Safari/537.36" version="24.9.0">
  <diagram name="PÃ¡gina-1" id="13ORkV0a7DtOubYdCoFY">
    <mxGraphModel dx="1998" dy="1020" grid="1" gridSize="10" guides="1" tooltips="1" connect="1" arrows="1" fold="1" page="1" pageScale="1" pageWidth="1169" pageHeight="827" math="0" shadow="0">
      <root>
        <mxCell id="0" />
        <mxCell id="1" parent="0" />
        <mxCell id="SpteEdD6I9RfOZYcCawU-1" value="Encostar o bilhete&lt;div&gt;na&amp;nbsp;&lt;span style=&quot;background-color: initial;&quot;&gt;catraca&lt;/span&gt;&lt;/div&gt;" style="ellipse;whiteSpace=wrap;html=1;" vertex="1" parent="1">
          <mxGeometry x="38" y="395" width="120" height="50" as="geometry" />
        </mxCell>
        <mxCell id="SpteEdD6I9RfOZYcCawU-2" value="" style="endArrow=classic;html=1;rounded=0;" edge="1" parent="1">
          <mxGeometry width="50" height="50" relative="1" as="geometry">
            <mxPoint x="158" y="419.5" as="sourcePoint" />
            <mxPoint x="208" y="419.5" as="targetPoint" />
          </mxGeometry>
        </mxCell>
        <mxCell id="SpteEdD6I9RfOZYcCawU-3" value="Tem saldo?" style="strokeWidth=2;html=1;shape=mxgraph.flowchart.decision;whiteSpace=wrap;" vertex="1" parent="1">
          <mxGeometry x="208" y="360" width="120" height="120" as="geometry" />
        </mxCell>
        <mxCell id="SpteEdD6I9RfOZYcCawU-5" value="" style="endArrow=none;html=1;rounded=0;" edge="1" parent="1">
          <mxGeometry width="50" height="50" relative="1" as="geometry">
            <mxPoint x="267.5" y="360" as="sourcePoint" />
            <mxPoint x="267.5" y="290" as="targetPoint" />
          </mxGeometry>
        </mxCell>
        <mxCell id="SpteEdD6I9RfOZYcCawU-6" value="" style="endArrow=classic;html=1;rounded=0;" edge="1" parent="1">
          <mxGeometry width="50" height="50" relative="1" as="geometry">
            <mxPoint x="267" y="289" as="sourcePoint" />
            <mxPoint x="368" y="289" as="targetPoint" />
          </mxGeometry>
        </mxCell>
        <mxCell id="SpteEdD6I9RfOZYcCawU-7" value="Descontar o valor&lt;div&gt;da passagem&lt;/div&gt;" style="rounded=0;whiteSpace=wrap;html=1;" vertex="1" parent="1">
          <mxGeometry x="368" y="257.5" width="120" height="60" as="geometry" />
        </mxCell>
        <mxCell id="SpteEdD6I9RfOZYcCawU-8" value="" style="endArrow=classic;html=1;rounded=0;" edge="1" parent="1">
          <mxGeometry width="50" height="50" relative="1" as="geometry">
            <mxPoint x="488" y="287" as="sourcePoint" />
            <mxPoint x="568" y="287" as="targetPoint" />
          </mxGeometry>
        </mxCell>
        <mxCell id="SpteEdD6I9RfOZYcCawU-9" value="&quot;Saldo Atual&quot;" style="shape=display;whiteSpace=wrap;html=1;" vertex="1" parent="1">
          <mxGeometry x="770" y="258.5" width="120" height="55" as="geometry" />
        </mxCell>
        <mxCell id="SpteEdD6I9RfOZYcCawU-10" value="" style="endArrow=none;html=1;rounded=0;" edge="1" parent="1">
          <mxGeometry width="50" height="50" relative="1" as="geometry">
            <mxPoint x="890" y="285.5" as="sourcePoint" />
            <mxPoint x="940" y="286" as="targetPoint" />
          </mxGeometry>
        </mxCell>
        <mxCell id="SpteEdD6I9RfOZYcCawU-11" value="" style="endArrow=none;html=1;rounded=0;" edge="1" parent="1">
          <mxGeometry width="50" height="50" relative="1" as="geometry">
            <mxPoint x="940" y="425" as="sourcePoint" />
            <mxPoint x="940" y="286" as="targetPoint" />
          </mxGeometry>
        </mxCell>
        <mxCell id="SpteEdD6I9RfOZYcCawU-12" value="" style="endArrow=classic;html=1;rounded=0;entryX=0;entryY=0.5;entryDx=0;entryDy=0;" edge="1" parent="1" target="SpteEdD6I9RfOZYcCawU-13">
          <mxGeometry width="50" height="50" relative="1" as="geometry">
            <mxPoint x="940" y="425" as="sourcePoint" />
            <mxPoint x="990" y="424" as="targetPoint" />
          </mxGeometry>
        </mxCell>
        <mxCell id="SpteEdD6I9RfOZYcCawU-13" value="Liberar a catraca" style="ellipse;whiteSpace=wrap;html=1;" vertex="1" parent="1">
          <mxGeometry x="1000" y="400" width="120" height="50" as="geometry" />
        </mxCell>
        <mxCell id="SpteEdD6I9RfOZYcCawU-14" value="" style="endArrow=none;html=1;rounded=0;" edge="1" parent="1">
          <mxGeometry width="50" height="50" relative="1" as="geometry">
            <mxPoint x="267.5" y="550" as="sourcePoint" />
            <mxPoint x="267.5" y="480" as="targetPoint" />
          </mxGeometry>
        </mxCell>
        <mxCell id="SpteEdD6I9RfOZYcCawU-15" value="" style="endArrow=classic;html=1;rounded=0;" edge="1" parent="1">
          <mxGeometry width="50" height="50" relative="1" as="geometry">
            <mxPoint x="267" y="550" as="sourcePoint" />
            <mxPoint x="368" y="550" as="targetPoint" />
          </mxGeometry>
        </mxCell>
        <mxCell id="SpteEdD6I9RfOZYcCawU-16" value="Mostrar mensagem&lt;div&gt;de &quot;Saldo&lt;/div&gt;&lt;div&gt;Insuficiente&quot;&lt;/div&gt;" style="rounded=0;whiteSpace=wrap;html=1;" vertex="1" parent="1">
          <mxGeometry x="368" y="515" width="120" height="60" as="geometry" />
        </mxCell>
        <mxCell id="SpteEdD6I9RfOZYcCawU-17" value="" style="endArrow=classic;html=1;rounded=0;" edge="1" parent="1">
          <mxGeometry width="50" height="50" relative="1" as="geometry">
            <mxPoint x="488" y="544.5" as="sourcePoint" />
            <mxPoint x="568" y="544.5" as="targetPoint" />
          </mxGeometry>
        </mxCell>
        <mxCell id="SpteEdD6I9RfOZYcCawU-18" value="Mostrar o saldo&lt;div&gt;atual&lt;/div&gt;" style="rounded=0;whiteSpace=wrap;html=1;" vertex="1" parent="1">
          <mxGeometry x="570" y="515" width="120" height="60" as="geometry" />
        </mxCell>
        <mxCell id="SpteEdD6I9RfOZYcCawU-19" value="Mostrar o saldo&lt;div&gt;atual&lt;/div&gt;" style="rounded=0;whiteSpace=wrap;html=1;" vertex="1" parent="1">
          <mxGeometry x="570" y="256" width="120" height="60" as="geometry" />
        </mxCell>
        <mxCell id="SpteEdD6I9RfOZYcCawU-20" value="" style="endArrow=classic;html=1;rounded=0;" edge="1" parent="1">
          <mxGeometry width="50" height="50" relative="1" as="geometry">
            <mxPoint x="690" y="285.5" as="sourcePoint" />
            <mxPoint x="770" y="285.5" as="targetPoint" />
          </mxGeometry>
        </mxCell>
        <mxCell id="SpteEdD6I9RfOZYcCawU-21" value="&quot;Saldo insuficiente:&lt;div&gt;Saldo Atual&quot;&lt;/div&gt;" style="shape=display;whiteSpace=wrap;html=1;fontSize=11;align=center;" vertex="1" parent="1">
          <mxGeometry x="770" y="517.5" width="120" height="55" as="geometry" />
        </mxCell>
        <mxCell id="SpteEdD6I9RfOZYcCawU-22" value="" style="endArrow=classic;html=1;rounded=0;" edge="1" parent="1">
          <mxGeometry width="50" height="50" relative="1" as="geometry">
            <mxPoint x="690" y="544.5" as="sourcePoint" />
            <mxPoint x="770" y="544.5" as="targetPoint" />
          </mxGeometry>
        </mxCell>
        <mxCell id="SpteEdD6I9RfOZYcCawU-24" value="Verdadeiro" style="text;html=1;align=center;verticalAlign=middle;resizable=0;points=[];autosize=1;strokeColor=none;fillColor=none;" vertex="1" parent="1">
          <mxGeometry x="270" y="256" width="80" height="30" as="geometry" />
        </mxCell>
        <mxCell id="SpteEdD6I9RfOZYcCawU-26" value="Falso" style="text;html=1;align=center;verticalAlign=middle;resizable=0;points=[];autosize=1;strokeColor=none;fillColor=none;" vertex="1" parent="1">
          <mxGeometry x="285" y="515" width="50" height="30" as="geometry" />
        </mxCell>
      </root>
    </mxGraphModel>
  </diagram>
</mxfile>
